<?xml version="1.0" encoding="UTF-8" standalone="no"?>
<svg
   xmlns:dc="http://purl.org/dc/elements/1.1/"
   xmlns:cc="http://creativecommons.org/ns#"
   xmlns:rdf="http://www.w3.org/1999/02/22-rdf-syntax-ns#"
   xmlns:svg="http://www.w3.org/2000/svg"
   xmlns="http://www.w3.org/2000/svg"
   id="svg95"
   xml:space="preserve"
   viewBox="0 0 550 445"
   height="445"
   width="550"
   version="1.1"><metadata
     id="metadata99"><rdf:RDF><cc:Work
         rdf:about=""><dc:format>image/svg+xml</dc:format><dc:type
           rdf:resource="http://purl.org/dc/dcmitype/StillImage" /></cc:Work></rdf:RDF></metadata><defs
     id="defs4"><style
       id="style2"
       type="text/css">@import url(&quot;https://fonts.googleapis.com/css2?family=Geo:wght@400&quot;);@import url(&quot;https://fonts.googleapis.com/css2?family=Geo:wght@400&quot;);</style></defs><defs
     id="defs6" /><g
     id="container-filled"
     transform="matrix(1 0 0 1 159.83 222.5)"><linearGradient
       y2="153.6"
       x2="0"
       y1="0"
       x1="0"
       gradientTransform="matrix(1 0 0 1 -76.8 -76.8)"
       gradientUnits="userSpaceOnUse"
       id="SVGID_14"><stop
         id="stop8"
         style="stop-color:rgb(211,47,47);stop-opacity: 1"
         offset="0%" /></linearGradient><rect
       id="rect11"
       height="153.6"
       width="153.6"
       ry="0"
       rx="0"
       y="-76.8"
       x="-76.8"
       style="stroke: none; stroke-width: 1; stroke-dasharray: none; stroke-linecap: butt; stroke-dashoffset: 0; stroke-linejoin: miter; stroke-miterlimit: 4; fill: url(#SVGID_14); fill-rule: nonzero; opacity: 1;" /></g><g
     id="logo-slogan"
     style=""
     transform="matrix(1.5 0 0 1.5 356.75 264.9)"><linearGradient
       y2="0"
       x2="130.8984375"
       y1="0"
       x1="0"
       gradientTransform="matrix(1 0 0 1 -65.45 -11.3)"
       gradientUnits="userSpaceOnUse"
       id="SVGID_3"><stop
         id="stop14"
         style="stop-color:rgb(255,152,0);stop-opacity: 1"
         offset="0%" /></linearGradient><text
       id="text19"
       style="stroke: none; stroke-width: 1; stroke-dasharray: none; stroke-linecap: butt; stroke-dashoffset: 0; stroke-linejoin: miter; stroke-miterlimit: 4; fill: url(#SVGID_3); fill-rule: nonzero; opacity: 1; white-space: pre;"
       font-weight="normal"
       font-style="normal"
       font-size="20"
       font-family="Geo"
       xml:space="preserve"><tspan
         id="tspan17"
         y="6.28"
         x="-65.45">Benchmarking IR</tspan></text>
</g><g
     id="icon"
     transform="matrix(0.19 0 0 0.19 159.83 222.5)"><g
       id="g84"
       style=""><g
         id="icon_piece"
         transform="matrix(1.33 0 0 1.33 -271.21 108.34)"><linearGradient
           y2="153.85292389954793"
           x2="105.18494919934075"
           y1="0"
           x1="0"
           gradientTransform="matrix(1 0 0 1 0 247.33)"
           gradientUnits="userSpaceOnUse"
           id="SVGID_5"><stop
             id="stop22"
             style="stop-color:rgb(255,159,0);stop-opacity: 1"
             offset="0%" /></linearGradient><path
           id="path25"
           stroke-linecap="round"
           d="m 69.363281 401.183594 c -0.863281 0 -1.742187 -0.074219 -2.621093 -0.230469 l -29.542969 -5.207031 c -11.839844 -2.089844 -22.15625 -8.660156 -29.050781 -18.507813 c -6.894532 -9.84375 -9.539063 -21.785156 -7.453126 -33.625 l 10.417969 -59.085937 c 2.089844 -11.835938 8.660157 -22.152344 18.507813 -29.046875 c 9.84375 -6.894531 21.785156 -9.542969 33.621094 -7.453125 l 29.546874 5.207031 c 3.917969 0.691406 7.398438 2.910156 9.679688 6.167969 c 2.285156 3.257812 3.179688 7.292968 2.488281 11.207031 l -20.839843 118.175781 c -1.285157 7.277344 -7.613282 12.398438 -14.753907 12.398438 z m -13.941406 -123.84375 c -7.136719 0 -13.480469 5.125 -14.761719 12.394531 l -10.421875 59.089844 c -0.695312 3.945312 0.1875 7.925781 2.484375 11.207031 c 2.300782 3.28125 5.738282 5.472656 9.683594 6.167969 l 14.773438 2.605469 l 15.628906 -88.632813 l -14.773438 -2.605469 c -0.878906 -0.152344 -1.75 -0.226562 -2.613281 -0.226562 z m 0 0"
           transform=" translate(-52.59, -324.26)"
           style="stroke: none; stroke-width: 1; stroke-dasharray: none; stroke-linecap: butt; stroke-dashoffset: 0; stroke-linejoin: miter; stroke-miterlimit: 4; fill: url(#SVGID_5); fill-rule: nonzero; opacity: 1;" /></g><g
         id="g33"
         transform="matrix(1.33 0 0 1.33 271.21 108.34)"><linearGradient
           y2="153.84337396565354"
           x2="105.17988285151802"
           y1="0"
           x1="0"
           gradientTransform="matrix(1 0 0 1 406.82 247.34)"
           gradientUnits="userSpaceOnUse"
           id="SVGID_6"><stop
             id="stop28"
             style="stop-color:rgb(255,159,0);stop-opacity: 1"
             offset="0%" /></linearGradient><path
           id="path31"
           stroke-linecap="round"
           d="m 442.660156 401.179688 c -3.054687 0 -6.0625 -0.933594 -8.601562 -2.710938 c -3.261719 -2.28125 -5.480469 -5.765625 -6.167969 -9.683594 l -20.839844 -118.175781 c -1.4375 -8.15625 4.011719 -15.9375 12.167969 -17.375 l 29.542969 -5.210937 c 24.429687 -4.304688 47.824219 12.066406 52.132812 36.503906 l 10.417969 59.085937 c 4.308594 24.4375 -12.066406 47.820313 -36.503906 52.128907 l -29.542969 5.210937 c -0.863281 0.152344 -1.738281 0.226563 -2.605469 0.226563 z m -3.460937 -121.007813 l 15.628906 88.632813 l 14.773437 -2.605469 c 8.144532 -1.433594 13.601563 -9.230469 12.164063 -17.375 l -10.417969 -59.085938 c -1.4375 -8.148437 -9.230468 -13.601562 -17.375 -12.167969 z m 0 0"
           transform=" translate(-459.41, -324.26)"
           style="stroke: none; stroke-width: 1; stroke-dasharray: none; stroke-linecap: butt; stroke-dashoffset: 0; stroke-linejoin: miter; stroke-miterlimit: 4; fill: url(#SVGID_6); fill-rule: nonzero; opacity: 1;" /></g><g
         id="g40"
         transform="matrix(1.33 0 0 1.33 -128.21 147.81)"><linearGradient
           y2="265.8405396567056"
           x2="222.3284179343986"
           y1="0"
           x1="0"
           gradientTransform="matrix(1 0 0 1 48.68 220.94)"
           gradientUnits="userSpaceOnUse"
           id="SVGID_7"><stop
             id="stop35"
             style="stop-color:rgb(253,191,0);stop-opacity: 1"
             offset="0%" /></linearGradient><path
           id="path38"
           stroke-linecap="round"
           d="m 212.878906 486.777344 c -2.585937 0 -5.203125 -0.226563 -7.835937 -0.6875 l -119.15625 -20.835938 c -24.457031 -4.3125 -40.832031 -27.695312 -36.523438 -52.132812 l 31.703125 -179.785156 c 1.4375 -8.160157 9.214844 -13.609376 17.375 -12.167969 c 8.160156 1.4375 13.605469 9.21875 12.167969 17.375 l -31.703125 179.785156 c -1.433594 8.148437 4.023438 15.941406 12.167969 17.378906 l 119.15625 20.832031 c 8.164062 1.4375 15.960937 -4.019531 17.398437 -12.164062 l 13.601563 -77.152344 c 1.4375 -8.15625 9.21875 -13.605468 17.375 -12.164062 c 8.160156 1.4375 13.605469 9.214844 12.167969 17.375 l -13.605469 77.152344 c -3.839844 21.804687 -22.875 37.1875 -44.289063 37.191406 z m 0 0"
           transform=" translate(-159.84, -353.86)"
           style="stroke: none; stroke-width: 1; stroke-dasharray: none; stroke-linecap: butt; stroke-dashoffset: 0; stroke-linejoin: miter; stroke-miterlimit: 4; fill: url(#SVGID_7); fill-rule: nonzero; opacity: 1;" /></g><g
         id="g47"
         transform="matrix(1.33 0 0 1.33 -124 -63.99)"><linearGradient
           y2="149.98109560705657"
           x2="210.0702736380041"
           y1="0"
           x1="0"
           gradientTransform="matrix(1 0 0 1 57.96 120.02)"
           gradientUnits="userSpaceOnUse"
           id="SVGID_8"><stop
             id="stop42"
             style="stop-color:rgb(255,225,186);stop-opacity: 1"
             offset="0%" /></linearGradient><path
           id="path45"
           stroke-linecap="round"
           d="m 195.34375 270 c -4.300781 0 -8.613281 -0.378906 -12.925781 -1.136719 c -13.976563 -2.464843 -26.828125 -8.859375 -37.246094 -18.386719 c -11.546875 5.617188 -24.855469 7.613282 -37.613281 5.363282 c -15.78125 -2.785156 -29.539063 -11.546875 -38.730469 -24.675782 c -9.191406 -13.128906 -12.722656 -29.050781 -9.9375 -44.832031 c 5.746094 -32.582031 36.925781 -54.417969 69.503906 -48.667969 c 4.832031 0.851563 9.679688 2.316407 14.238281 4.269532 c 17.105469 -17.015625 41.675782 -25.050782 65.832032 -20.789063 c 28.425781 5.011719 51.027344 25.457031 58.988281 53.359375 c 2.273437 7.964844 -2.34375 16.265625 -10.3125 18.535156 c -7.964844 2.273438 -16.265625 -2.34375 -18.539063 -10.308593 c -4.78125 -16.765625 -18.324218 -29.042969 -35.347656 -32.042969 c -17.214844 -3.035156 -34.800781 4.382812 -44.800781 18.90625 c -2.324219 3.378906 -5.9375 5.65625 -9.988281 6.304688 c -4.050782 0.644531 -8.195313 -0.398438 -11.457032 -2.886719 c -3.601562 -2.742188 -8.765624 -4.914063 -13.820312 -5.804688 c -16.289062 -2.871093 -31.882812 8.042969 -34.753906 24.332031 c -1.390625 7.894532 0.375 15.855469 4.96875 22.417969 c 4.597656 6.5625 11.472656 10.945313 19.363281 12.335938 c 8.824219 1.558593 18.539063 -1.007813 25.34375 -6.699219 c 3.148437 -2.632812 7.238281 -3.863281 11.320313 -3.398438 c 4.078124 0.464844 7.789062 2.582032 10.265624 5.855469 c 6.945313 9.183594 16.867188 15.316407 27.933594 17.265625 c 6.667969 1.175782 13.355469 0.820313 19.867188 -1.054687 c 7.960937 -2.292969 16.273437 2.296875 18.566406 10.257812 c 2.296875 7.960938 -2.296875 16.273438 -10.257812 18.566407 c -6.734376 1.941406 -13.578126 2.914062 -20.460938 2.914062 z m 0 0"
           transform=" translate(-163, -195.01)"
           style="stroke: none; stroke-width: 1; stroke-dasharray: none; stroke-linecap: butt; stroke-dashoffset: 0; stroke-linejoin: miter; stroke-miterlimit: 4; fill: url(#SVGID_8); fill-rule: nonzero; opacity: 1;" /></g><g
         id="g54"
         transform="matrix(1.33 0 0 1.33 116.16 147.81)"><linearGradient
           y2="265.8433173226522"
           x2="240.42332786453102"
           y1="0"
           x1="0"
           gradientTransform="matrix(1 0 0 1 222.91 220.93)"
           gradientUnits="userSpaceOnUse"
           id="SVGID_9"><stop
             id="stop49"
             style="stop-color:rgb(253,191,0);stop-opacity: 1"
             offset="0%" /></linearGradient><path
           id="path52"
           stroke-linecap="round"
           d="m 299.121094 486.777344 c -21.402344 0 -40.441406 -15.386719 -44.285156 -37.191406 l -31.699219 -179.785157 c -1.4375 -8.160156 4.007812 -15.9375 12.164062 -17.375 c 8.15625 -1.441406 15.9375 4.007813 17.378907 12.164063 l 31.699218 179.785156 c 1.4375 8.148438 9.230469 13.601562 17.378906 12.167969 l 119.195313 -20.84375 c 8.125 -1.429688 13.582031 -9.226563 12.144531 -17.371094 l -31.703125 -179.785156 c -1.4375 -8.160157 4.011719 -15.9375 12.167969 -17.378907 c 8.164062 -1.4375 15.9375 4.011719 17.378906 12.167969 l 31.699219 179.785157 c 4.3125 24.4375 -12.0625 47.820312 -36.5 52.128906 l -119.195313 20.84375 c -2.628906 0.464844 -5.242187 0.6875 -7.824218 0.6875 z m 0 0"
           transform=" translate(-343.12, -353.86)"
           style="stroke: none; stroke-width: 1; stroke-dasharray: none; stroke-linecap: butt; stroke-dashoffset: 0; stroke-linejoin: miter; stroke-miterlimit: 4; fill: url(#SVGID_9); fill-rule: nonzero; opacity: 1;" /></g><g
         id="g61"
         transform="matrix(1.33 0 0 1.33 84.9 -55.47)"><linearGradient
           y2="162.83043705016638"
           x2="268.73905770800565"
           y1="0"
           x1="0"
           gradientTransform="matrix(1 0 0 1 185.3 119.98)"
           gradientUnits="userSpaceOnUse"
           id="SVGID_10"><stop
             id="stop56"
             style="stop-color:rgb(255,225,186);stop-opacity: 1"
             offset="0%" /></linearGradient><path
           id="path59"
           stroke-linecap="round"
           d="m 245.183594 282.8125 c -12.199219 0 -24.085938 -3.722656 -34.289063 -10.867188 c -13.128906 -9.191406 -21.890625 -22.945312 -24.671875 -38.726562 c -5.746094 -32.582031 16.085938 -63.761719 48.667969 -69.507812 c 4.621094 -0.816407 9.300781 -1.058594 14 -0.730469 c 10.285156 -21.726563 30.570313 -37.589844 54.652344 -41.835938 c 24.546875 -4.332031 49.410156 3.640625 66.652343 20.628907 c 4.308594 -1.917969 8.789063 -3.292969 13.414063 -4.109376 c 15.777344 -2.78125 31.703125 0.746094 44.832031 9.941407 c 13.128906 9.191406 21.890625 22.945312 24.675782 38.726562 c 2.78125 15.785157 -0.746094 31.707031 -9.941407 44.835938 c -9.191406 13.125 -22.945312 21.890625 -38.726562 24.671875 c -12.589844 2.21875 -25.429688 0.273437 -36.769531 -5.363282 c -10.523438 9.371094 -23.84375 15.875 -38.089844 18.386719 c -13.957032 2.460938 -28.195313 0.855469 -41.222656 -4.507812 c -8.71875 9.128906 -20.089844 15.320312 -32.640626 17.53125 c -3.519531 0.617187 -7.042968 0.925781 -10.542968 0.925781 z m -7.6875 -104.332031 l 2.605468 14.773437 c -16.292968 2.871094 -27.210937 18.460938 -24.335937 34.753906 c 2.871094 16.289063 18.464844 27.203126 34.753906 24.335938 c 8.566407 -1.511719 16.070313 -6.84375 20.582031 -14.625 c 2.058594 -3.550781 5.484376 -6.105469 9.476563 -7.0625 s 8.199219 -0.238281 11.644531 1.988281 c 9.667969 6.253907 21.085938 8.621094 32.15625 6.671875 c 11.46875 -2.019531 22.28125 -8.476562 28.933594 -17.265625 c 2.476562 -3.273437 6.183594 -5.390625 10.265625 -5.851562 c 4.078125 -0.464844 8.167969 0.761719 11.316406 3.394531 c 6.902344 5.769531 15.773438 8.210938 24.34375 6.703125 c 7.890625 -1.394531 14.769531 -5.773437 19.363281 -12.339844 c 4.597657 -6.5625 6.363282 -14.523437 4.96875 -22.414062 c -1.390624 -7.894531 -5.769531 -14.769531 -12.335937 -19.367188 c -6.5625 -4.59375 -14.527344 -6.359375 -22.414063 -4.96875 c -4.492187 0.792969 -8.808593 2.746094 -12.820312 5.808594 c -3.265625 2.488281 -7.402344 3.527344 -11.457031 2.882813 c -4.054688 -0.648438 -7.664063 -2.925782 -9.992188 -6.304688 c -9.910156 -14.394531 -28.316406 -21.988281 -45.800781 -18.910156 c -17.214844 3.039062 -31.203125 16.027344 -35.632812 33.089844 c -1.03125 3.972656 -3.644532 7.347656 -7.230469 9.34375 c -3.589844 1.992187 -7.835938 2.429687 -11.753907 1.207031 c -4.816406 -1.503907 -9.539062 -1.863281 -14.03125 -1.074219 z m 0 0"
           transform=" translate(-319.67, -201.4)"
           style="stroke: none; stroke-width: 1; stroke-dasharray: none; stroke-linecap: butt; stroke-dashoffset: 0; stroke-linejoin: miter; stroke-miterlimit: 4; fill: url(#SVGID_10); fill-rule: nonzero; opacity: 1;" /></g><g
         id="g68"
         transform="matrix(1.33 0 0 1.33 0.01 -284)"><linearGradient
           y2="60"
           x2="30"
           y1="0"
           x1="0"
           gradientTransform="matrix(1 0 0 1 241 0)"
           gradientUnits="userSpaceOnUse"
           id="SVGID_11"><stop
             id="stop63"
             style="stop-color:rgb(255,224,178);stop-opacity: 1"
             offset="0%" /></linearGradient><path
           id="path66"
           stroke-linecap="round"
           d="m 256.003906 60 c -8.285156 0 -15 -6.714844 -15 -15 v -30 c 0 -8.285156 6.714844 -15 15 -15 s 15 6.714844 15 15 v 30 c 0 8.285156 -6.714844 15 -15 15 z m 0 0"
           transform=" translate(-256, -30)"
           style="stroke: none; stroke-width: 1; stroke-dasharray: none; stroke-linecap: butt; stroke-dashoffset: 0; stroke-linejoin: miter; stroke-miterlimit: 4; fill: url(#SVGID_11); fill-rule: nonzero; opacity: 1;" /></g><g
         id="g75"
         transform="matrix(1.33 0 0 1.33 80 -244)"><linearGradient
           y2="51.21484425"
           x2="51.21191425000001"
           y1="0"
           x1="0"
           gradientTransform="matrix(1 0 0 1 290.4 34.39)"
           gradientUnits="userSpaceOnUse"
           id="SVGID_12"><stop
             id="stop70"
             style="stop-color:rgb(255,224,178);stop-opacity: 1"
             offset="0%" /></linearGradient><path
           id="path73"
           stroke-linecap="round"
           d="m 305.394531 85.605469 c -3.835937 0 -7.675781 -1.464844 -10.605469 -4.394531 c -5.855468 -5.859376 -5.855468 -15.355469 0 -21.210938 l 21.214844 -21.214844 c 5.855469 -5.859375 15.355469 -5.859375 21.210938 0 c 5.859375 5.859375 5.859375 15.355469 0 21.214844 l -21.210938 21.210938 c -2.929687 2.929687 -6.769531 4.394531 -10.609375 4.394531 z m 0 0"
           transform=" translate(-316, -60)"
           style="stroke: none; stroke-width: 1; stroke-dasharray: none; stroke-linecap: butt; stroke-dashoffset: 0; stroke-linejoin: miter; stroke-miterlimit: 4; fill: url(#SVGID_12); fill-rule: nonzero; opacity: 1;" /></g><g
         id="g82"
         transform="matrix(1.33 0 0 1.33 -79.99 -244)"><linearGradient
           y2="51.21484425"
           x2="51.21191399999998"
           y1="0"
           x1="0"
           gradientTransform="matrix(1 0 0 1 170.4 34.39)"
           gradientUnits="userSpaceOnUse"
           id="SVGID_13"><stop
             id="stop77"
             style="stop-color:rgb(255,224,178);stop-opacity: 1"
             offset="0%" /></linearGradient><path
           id="path80"
           stroke-linecap="round"
           d="m 206.609375 85.605469 c -3.835937 0 -7.675781 -1.464844 -10.605469 -4.394531 l -21.210937 -21.210938 c -5.859375 -5.859375 -5.859375 -15.355469 0 -21.214844 c 5.855469 -5.859375 15.355469 -5.859375 21.210937 0 l 21.214844 21.214844 c 5.855469 5.855469 5.855469 15.351562 0 21.210938 c -2.929688 2.929687 -6.769531 4.394531 -10.609375 4.394531 z m 0 0"
           transform=" translate(-196, -60)"
           style="stroke: none; stroke-width: 1; stroke-dasharray: none; stroke-linecap: butt; stroke-dashoffset: 0; stroke-linejoin: miter; stroke-miterlimit: 4; fill: url(#SVGID_13); fill-rule: nonzero; opacity: 1;" /></g></g></g><g
     id="logo-name"
     style=""
     transform="matrix(2.81 0 0 2.81 325.53 212.96)"><linearGradient
       y2="33.89999999999999"
       x2="0"
       y1="0"
       x1="0"
       gradientTransform="matrix(1 0 0 1 -23.58 -16.95)"
       gradientUnits="userSpaceOnUse"
       id="SVGID_2"><stop
         id="stop87"
         style="stop-color:rgb(183,28,28);stop-opacity: 1"
         offset="0%" /></linearGradient><text
       id="text92"
       style="stroke: none; stroke-width: 1; stroke-dasharray: none; stroke-linecap: butt; stroke-dashoffset: 0; stroke-linejoin: miter; stroke-miterlimit: 4; fill: url(#SVGID_2); fill-rule: nonzero; opacity: 1; white-space: pre;"
       font-weight="normal"
       font-style="normal"
       font-size="30"
       font-family="Geo"
       xml:space="preserve"><tspan
         id="tspan90"
         y="9.42"
         x="-23.58">Beir</tspan></text>
</g></svg>